<svg width="24" height="30" viewBox="0 0 24 30" fill="none" xmlns="http://www.w3.org/2000/svg">
<path d="M13.4961 23.0237C13.4961 24.3549 13.4961 25.6737 13.4961 27.0295C14.4821 26.9555 15.3326 27.2143 15.9612 27.9908C16.7007 27.3006 16.9719 27.0295 18.4632 27.0048C18.4632 25.6737 18.4632 24.3549 18.4632 23.073C17.8716 22.8388 17.28 22.617 16.6637 22.3705C16.8979 22.0377 17.0705 21.7789 17.2677 21.4954C18.2537 22.0993 19.2767 22.2102 20.3367 21.6926C21.0269 21.3598 21.5692 20.7312 21.7911 20.0163C21.1502 20.0163 20.5216 20.0163 19.893 20.0163C19.2644 20.0163 18.6481 20.0163 18.0072 20.0163C18.0072 19.6835 18.0072 19.3754 18.0072 19.0303C19.3137 19.0303 20.6325 19.0303 21.9883 19.0303C22.013 17.3294 21.6802 15.6901 21.5569 14.0262C20.2011 14.0262 18.87 14.0262 17.5142 14.0262C17.5142 13.6934 17.5142 13.3729 17.5142 13.0402C17.5512 13.0278 17.5881 13.0155 17.6251 13.0155C19.0549 13.0155 20.4723 13.0155 21.902 13.0155C22.2718 13.0155 22.4443 13.1881 22.4937 13.5578C22.6539 14.9383 22.8388 16.331 22.9497 17.7115C23.0236 18.5619 23.0729 19.437 22.7771 20.2752C22.2841 21.7049 21.1625 22.6416 19.4863 22.9744C19.4863 23.6277 19.4863 24.2932 19.4863 24.9465C19.4863 25.612 19.4863 26.2776 19.4863 26.9925C19.6588 26.9925 19.819 26.9925 19.9793 26.9925C21.2734 27.0048 22.3088 27.9415 22.469 29.2111C22.543 29.7657 22.3457 29.9876 21.7911 29.9876C17.9209 29.9876 14.0384 29.9876 10.1683 29.9876C9.61362 29.9876 9.42874 29.7657 9.50269 29.1987C9.66292 27.9169 10.7106 27.0048 12.0047 26.9802C12.1526 26.9802 12.3006 26.9802 12.4608 26.9802C12.4608 25.6367 12.4608 24.3056 12.4608 22.9498C11.7336 22.8265 11.0803 22.5677 10.5134 22.1116C9.60129 21.3598 9.08363 20.4107 9.022 19.2152C8.94805 17.9457 9.14525 16.7008 9.26851 15.4559C9.33013 14.815 9.41641 14.1741 9.49037 13.5332C9.52734 13.1634 9.71222 13.0032 10.082 13.0032C12.0171 13.0032 13.9522 13.0032 15.8872 13.0032C16.2324 13.0032 16.4542 13.1634 16.4789 13.4715C16.6514 15.2464 16.8856 17.0089 16.9595 18.7838C17.0582 20.9407 15.7024 22.543 13.5701 22.9498C13.5577 22.9867 13.5454 22.9991 13.4961 23.0237ZM16.0598 19.018C15.8872 17.3294 15.727 15.6901 15.5668 14.0508C13.8289 14.0508 12.1403 14.0508 10.4271 14.0508C10.3038 15.7148 9.97105 17.354 9.9957 19.018C12.0047 19.018 13.9768 19.018 16.0598 19.018ZM10.1806 20.041C10.5996 21.3105 11.9308 22.1609 13.2743 22.0254C14.4452 21.9021 15.6654 20.9284 15.7517 20.041C13.9029 20.041 12.054 20.041 10.1806 20.041ZM15.3942 29.0139C15.1231 28.4099 14.704 28.0771 14.1124 28.0401C13.3605 28.0032 12.5964 28.0032 11.8322 28.0401C11.2282 28.0648 10.6859 28.5455 10.6366 29.0139C12.2143 29.0139 13.7796 29.0139 15.3942 29.0139ZM16.6268 29.0139C18.2044 29.0139 19.7697 29.0139 21.3474 29.0139C21.2118 28.4839 20.6818 28.0525 20.0779 28.0401C19.3507 28.0155 18.6235 28.0155 17.8963 28.0401C17.2923 28.0525 16.75 28.4839 16.6268 29.0139Z" fill="#232323"/>
<path d="M7.97453 17.5144C7.97453 17.8841 7.97453 18.1923 7.97453 18.5127C5.65736 18.5127 3.34018 18.5127 1.01068 18.5127C1.01068 21.0148 1.01068 23.5045 1.01068 25.9942C3.99343 25.9942 6.97617 25.9942 9.98357 25.9942C9.98357 25.0082 9.98357 24.0345 9.98357 23.0362C10.3164 23.0362 10.6368 23.0362 10.9942 23.0362C10.9942 23.3813 10.9942 23.7387 10.9942 24.0838C10.9942 24.8357 10.9942 25.5875 10.9942 26.327C10.9942 26.8447 10.834 27.0049 10.3287 27.0049C7.34593 27.0049 4.37551 27.0049 1.39277 27.0049C1.26952 27.0049 1.14626 27.0049 0.998357 27.0049C0.998357 27.5472 0.986032 28.0526 1.01068 28.5579C1.02301 28.8291 1.22021 28.9893 1.49137 29.0016C1.67625 29.014 1.86113 29.0016 2.05834 29.0016C4.0797 29.0016 6.10107 29.0016 8.12243 29.0016C8.23336 29.0016 8.34429 29.0016 8.47987 29.0016C8.47987 29.3344 8.47987 29.6426 8.47987 29.9877C8.38127 29.9877 8.28266 30 8.17173 30C5.99014 30 3.82087 30 1.63928 30C0.61627 30 0 29.3837 0 28.3361C0 24.9836 0 21.6311 0 18.2786C0 16.2325 0.443714 14.2975 1.39277 12.4733C2.07067 11.1791 2.62531 9.86031 2.83484 8.40592C2.93344 7.74035 2.98274 7.06245 2.99507 6.38455C3.01972 4.64667 3.0074 2.90879 3.0074 1.17091C3.0074 0.382087 3.38948 0 4.16598 0C5.07806 0 5.97781 0 6.88989 0C7.60477 0 8.01151 0.406738 8.01151 1.12161C8.01151 2.81019 8.02383 4.49877 8.01151 6.18735C7.98685 8.22104 8.41824 10.1561 9.3673 11.9556C9.39195 12.0049 9.40427 12.0542 9.45358 12.1282C9.18242 12.2884 8.89893 12.4363 8.60312 12.6089C8.03615 11.6352 7.67872 10.5875 7.38291 9.50288C6.15037 9.50288 4.91783 9.50288 3.67297 9.50288C3.57436 9.83566 3.50041 10.1931 3.36483 10.5136C2.92112 11.5489 2.44043 12.5596 1.99671 13.5826C1.4544 14.8151 1.14626 16.097 1.05998 17.4774C3.34018 17.5144 5.64503 17.5144 7.97453 17.5144ZM3.91947 8.51684C4.95481 8.51684 6.02712 8.51684 7.06245 8.51684C7.02547 6.85292 7.00082 5.20131 6.96385 3.54971C5.96549 3.54971 4.99178 3.54971 4.01808 3.54971C3.9811 5.21364 3.95645 6.85292 3.91947 8.51684ZM6.97617 1.04766C5.96549 1.04766 4.99178 1.04766 4.01808 1.04766C4.01808 1.553 4.01808 2.03369 4.01808 2.51438C5.01643 2.51438 5.99014 2.51438 6.97617 2.51438C6.97617 2.02136 6.97617 1.553 6.97617 1.04766Z" fill="#232323"/>
<path d="M7.14884 21.0518C7.03791 21.3846 6.93931 21.6681 6.82838 21.9885C6.5449 21.8899 6.27374 21.8036 6.0149 21.7174C5.867 22.6048 6.44629 22.8636 7.14884 23.0485C7.03791 23.369 6.93931 23.6648 6.82838 23.9976C6.5449 23.899 6.28606 23.8127 5.99025 23.7141C5.99025 24.1455 5.99025 24.5645 5.99025 25.0082C5.65747 25.0082 5.34933 25.0082 5.00422 25.0082C5.00422 24.6015 5.00422 24.1701 5.00422 23.7141C4.69609 23.8127 4.42493 23.899 4.14144 23.9852C4.03052 23.6648 3.93191 23.369 3.82098 23.0485C4.51121 22.8636 5.10282 22.6048 4.95492 21.7174C4.69609 21.8036 4.42493 21.8899 4.14144 21.9885C4.03052 21.6681 3.93191 21.3846 3.82098 21.0518C3.99354 20.9902 4.16609 20.9409 4.32632 20.8792C4.72074 20.7437 4.94259 20.4725 4.97957 20.0534C5.01655 19.7083 5.20143 19.5234 5.47259 19.5234C5.75607 19.5234 5.94095 19.7083 5.97793 20.0534C6.0149 20.4725 6.23676 20.7437 6.63117 20.8792C6.7914 20.9409 6.95163 20.9902 7.14884 21.0518Z" fill="#232323"/>
<path d="M3.06907 16.6022C2.79791 16.5529 2.48977 16.5036 2.19396 16.4543C2.15699 15.7025 2.97046 13.5455 3.73464 12.3376C4.01812 12.4732 4.30161 12.5965 4.60974 12.7444C4.30161 13.373 3.98115 13.9769 3.72231 14.6055C3.47581 15.2341 3.30325 15.8997 3.06907 16.6022Z" fill="#232323"/>
<path d="M17.6869 18.0075C17.7855 17.0707 17.8841 16.1463 17.995 15.1973C18.3278 15.2342 18.6483 15.2589 18.9934 15.2959C18.8948 16.2326 18.7962 17.157 18.6852 18.1061C18.3401 18.0691 18.032 18.0444 17.6869 18.0075Z" fill="#232323"/>
<path d="M4.12897 11.3518C4.2399 11.019 4.3385 10.7232 4.44943 10.3904C4.75756 10.4767 5.0657 10.5629 5.39848 10.6615C5.28755 11.0066 5.17663 11.3394 5.05337 11.6969C4.73291 11.5859 4.44943 11.475 4.12897 11.3518Z" fill="#232323"/>
<path d="M16.06 19.0182C13.9893 19.0182 12.0173 19.0182 9.99592 19.0182C9.95894 17.3542 10.3041 15.7273 10.4273 14.051C12.1405 14.051 13.8291 14.051 15.567 14.051C15.7272 15.6903 15.8875 17.3296 16.06 19.0182ZM10.9943 18.0075C11.3394 18.0445 11.6475 18.0691 11.9926 18.1061C12.0912 17.157 12.1898 16.2326 12.3008 15.2836C11.9433 15.2466 11.6352 15.2219 11.3024 15.185C11.2038 16.1463 11.1052 17.0584 10.9943 18.0075Z" fill="white"/>
<path d="M10.9942 18.0075C11.0928 17.0584 11.1914 16.1463 11.3023 15.1973C11.6351 15.2219 11.9433 15.2589 12.3007 15.2959C12.2021 16.2449 12.1035 17.157 11.9926 18.1184C11.6474 18.0691 11.3516 18.0444 10.9942 18.0075Z" fill="#232323"/>
</svg>
