<svg width="27" height="20" viewBox="0 0 27 20" fill="none" xmlns="http://www.w3.org/2000/svg">
<path d="M12.9554 6.9474C14.0971 6.55873 15.2388 6.17817 16.3805 5.7895C17.9838 5.24699 19.5951 4.71258 21.1984 4.16197C21.3522 4.11339 21.4737 4.0729 21.6194 4.21865C22.9231 5.54659 24.2429 6.87452 25.5546 8.19436C25.5789 8.21865 25.587 8.24294 25.6194 8.29153C24.753 8.58302 23.9028 8.87452 23.0445 9.16602C20.7044 9.95144 18.3724 10.7369 16.0405 11.5304C15.8056 11.6114 15.668 11.5709 15.506 11.4008C14.4615 10.3239 13.4008 9.26319 12.3401 8.19436C12.2753 8.12958 12.2105 8.06481 12.0971 7.93525C12.6316 8.01622 13.0931 8.0729 13.5546 8.14578C14.3077 8.25914 15.0526 8.3806 15.8056 8.49396C15.8785 8.50205 15.9514 8.51015 16.0243 8.51825C16.3482 8.53444 16.5749 8.3644 16.6073 8.081C16.6477 7.7814 16.4615 7.53849 16.1376 7.48991C15.4413 7.37655 14.7368 7.27938 14.0405 7.17412C13.6842 7.11744 13.3279 7.06076 12.9635 7.01217C12.9554 6.98788 12.9554 6.97169 12.9554 6.9474Z" fill="white"/>
<path d="M13.4008 5.70043C13.4899 5.2146 13.6275 4.74496 13.6437 4.26723C13.6599 3.74901 13.3684 3.36035 12.9069 3.12553C11.7976 2.55873 10.5182 3.06075 10.1376 4.24294C9.9919 4.70447 9.95951 5.1984 9.88663 5.57087C9.17408 4.88261 8.38866 4.12148 7.57894 3.35225C8.22671 3.12553 8.87449 2.9069 9.52226 2.68828C12.0729 1.81379 14.6235 0.939293 17.166 0.0567022C17.3684 -0.0161723 17.498 2.20481e-05 17.6518 0.161965C18.5749 1.12553 19.5061 2.08099 20.4372 3.03646C20.502 3.10124 20.5587 3.17411 20.6397 3.27128C18.1862 4.08909 15.7652 4.89881 13.4008 5.70043Z" fill="white"/>
<path d="M4.56679 9.76522C6.32387 9.17413 8.04857 8.59113 9.82185 7.99194C9.80565 8.09721 9.79755 8.17818 9.78136 8.25105C9.56274 9.09316 9.34411 9.94336 9.11739 10.7855C9.01213 11.1822 9.13359 11.4494 9.44938 11.5466C9.74897 11.6357 9.99998 11.4494 10.1052 11.0527C10.3563 10.1215 10.5992 9.18223 10.834 8.29964C12.081 9.50611 13.336 10.7288 14.6154 11.9757C14.5101 12.0162 14.4372 12.0567 14.3644 12.081C12.5587 12.6883 10.7611 13.2956 8.95545 13.9029C8.8178 13.9515 8.70444 13.9757 8.56678 13.8462C7.27124 12.5183 5.9595 11.2065 4.65585 9.88668C4.63966 9.87049 4.61537 9.83 4.56679 9.76522Z" fill="white"/>
<path d="M16.1053 14.5425C16.1053 13.911 16.0972 13.328 16.1134 12.745C16.1134 12.664 16.251 12.5587 16.3482 12.5263C17.749 12.0486 19.1498 11.579 20.5506 11.1093C22.2996 10.5182 24.0405 9.93525 25.7895 9.34416C25.8785 9.31177 25.9676 9.29557 26.0729 9.26318C26.0729 9.90286 26.0729 10.5263 26.0729 11.1903C22.7773 12.2915 19.4575 13.4089 16.1053 14.5425Z" fill="white"/>
<path d="M6.36437 8.0648C5.48988 8.35629 4.67206 8.6397 3.83805 8.915C3.77328 8.93929 3.65992 8.88261 3.60324 8.82593C2.5668 7.82188 1.53846 6.82593 0.453438 5.7652C0.639673 5.69233 0.70445 5.65184 0.777325 5.62755C2.5668 5.02836 4.36437 4.42917 6.15384 3.81378C6.35627 3.74091 6.48583 3.7571 6.64777 3.91905C6.99595 4.28342 7.36842 4.6154 7.77328 5.00407C7.37652 5.02026 7.06073 5.01216 6.75303 5.06075C5.88664 5.1822 5.30364 5.86237 5.31984 6.71257C5.32793 7.23079 5.57895 7.60326 6.00809 7.86237C6.10526 7.92714 6.21052 7.98382 6.36437 8.0648Z" fill="white"/>
<path d="M16.1133 17.2145C16.1133 16.6801 16.1133 16.17 16.1133 15.6356C19.085 14.6316 22.0648 13.6356 25.0931 12.6154C25.0931 13.1336 25.1012 13.6194 25.085 14.0971C25.085 14.17 24.9312 14.2672 24.8259 14.2996C22.7044 15.0202 20.5911 15.7247 18.4696 16.4453C17.8057 16.6639 17.1498 16.8907 16.4858 17.1174C16.3644 17.1498 16.2429 17.1741 16.1133 17.2145Z" fill="white"/>
<path d="M15.0769 12.9474C15.0769 13.5628 15.085 14.1296 15.0688 14.6883C15.0688 14.7693 14.9798 14.9069 14.9069 14.9312C12.9879 15.5871 11.0688 16.2348 9.11742 16.8907C9.11742 16.2348 9.11742 15.6033 9.11742 14.9555C11.085 14.2915 13.0607 13.6276 15.0769 12.9474Z" fill="white"/>
<path d="M8.10525 19.9271C8.10525 19.2389 8.10525 18.5992 8.10525 17.8785C8.42104 18.2591 8.74492 18.1215 9.06881 18.0162C10.9393 17.3846 12.8097 16.753 14.6801 16.1215C14.7935 16.081 14.915 16.0486 15.0769 16C15.0769 16.5101 15.0931 16.9879 15.0607 17.4575C15.0526 17.5385 14.8988 17.6437 14.7854 17.6842C13.0364 18.2834 11.2793 18.8664 9.52225 19.4575C9.06071 19.6032 8.59108 19.7652 8.10525 19.9271Z" fill="white"/>
<path d="M4.08907 13.8462C4.20243 13.9434 4.26721 14 4.33199 14.0648C5.18219 14.9231 6.03239 15.7733 6.8745 16.6478C6.97976 16.7612 7.06073 16.9474 7.06073 17.1013C7.07693 17.8381 7.06883 18.5749 7.06883 19.3685C6.97166 19.2794 6.89879 19.2308 6.83401 19.166C5.97571 18.2996 5.11741 17.4413 4.26721 16.5668C4.17005 16.4616 4.09717 16.2834 4.08907 16.1377C4.08098 15.3928 4.08907 14.6478 4.08907 13.8462Z" fill="white"/>
<path d="M4.08908 10.8097C4.50204 11.2226 4.87451 11.5789 5.23078 11.9352C6.12147 12.8259 7.01216 13.7247 7.88665 14.6316C7.98382 14.7368 8.05669 14.915 8.06479 15.0607C8.08908 15.4737 8.07289 15.8866 8.07289 16.3482C7.95952 16.2429 7.89475 16.1862 7.82997 16.1214C6.64778 14.9312 5.4737 13.7328 4.28341 12.5506C4.13766 12.4048 4.07289 12.2591 4.08098 12.0567C4.09718 11.668 4.08908 11.2712 4.08908 10.8097Z" fill="white"/>
<path d="M3.06072 15.3036C2.56679 14.8178 2.12955 14.3482 1.63562 13.9352C1.19028 13.5627 1.01214 13.1417 1.06882 12.5587C1.1174 12 1.07691 11.4413 1.14979 10.834C1.31983 11.0121 1.48177 11.1903 1.65181 11.3603C2.06477 11.7814 2.49392 12.2024 2.89878 12.6316C2.97975 12.7125 3.05262 12.8421 3.05262 12.9473C3.06882 13.7166 3.06072 14.4858 3.06072 15.3036Z" fill="white"/>
<path d="M3.06072 11.2146C2.22671 10.4048 1.42509 9.59512 0.582987 8.82589C0.194323 8.46961 0.00808853 8.09714 0.080963 7.57892C0.113352 7.33601 0.0890602 7.085 0.0890602 6.7854C0.186226 6.85827 0.242906 6.90686 0.299587 6.95544C1.16598 7.82993 2.03238 8.69633 2.89068 9.57892C2.98785 9.67609 3.05262 9.84613 3.06072 9.98378C3.07691 10.3967 3.06072 10.8097 3.06072 11.2146Z" fill="white"/>
<path d="M11.004 6.42915C10.9555 5.75709 10.8907 5.12551 11.1255 4.51822C11.3198 4 11.9838 3.77328 12.4453 4.07288C12.5425 4.13765 12.6397 4.31579 12.6316 4.42915C12.5992 4.68016 12.5263 4.93927 12.4129 5.16599C12.1457 5.67612 11.6032 6.15385 11.004 6.42915Z" fill="white"/>
<path d="M9.44129 6.93124C8.61538 7.15796 7.79756 7.27132 6.96356 7.12558C6.92307 7.11748 6.88258 7.11748 6.8421 7.10128C6.62347 7.01222 6.35627 6.97983 6.34817 6.66404C6.34007 6.38064 6.56679 6.12153 6.89878 6.08104C7.87853 5.95149 8.68825 6.36444 9.44129 6.93124Z" fill="white"/>
</svg>
