<svg width="29" height="25" viewBox="0 0 29 25" fill="none" xmlns="http://www.w3.org/2000/svg">
<path d="M0.0518799 0.435685C0.228228 0.103734 0.497938 0 0.871382 0C4.89628 0.0103734 8.92118 0.0103734 12.9461 0C13.278 0 13.5477 0.0829876 13.7656 0.342324C13.9523 0.570539 14.1701 0.767635 14.4191 1.02697C14.6784 0.746888 14.8859 0.477178 15.1349 0.259336C15.2905 0.124481 15.5187 0.0103734 15.7262 0.0103734C19.834 -1.00475e-08 23.9315 0 28.0394 0C28.527 0 28.7863 0.280083 28.7759 0.778008C28.7656 0.943983 28.7656 1.10996 28.7656 1.27593C28.7656 8.85892 28.7656 16.4419 28.7656 24.0249C28.7656 24.139 28.7759 24.2635 28.7552 24.3776C28.7137 24.7303 28.4855 24.9378 28.1328 24.9481C27.9461 24.9585 27.7593 24.9481 27.5726 24.9481C23.693 24.9481 19.8133 24.9481 15.9336 24.9585C15.5394 24.9585 15.2386 24.8651 14.9896 24.5539C14.8237 24.3465 14.6266 24.1494 14.4087 23.9108C14.139 24.1909 13.9108 24.4191 13.7033 24.6577C13.5166 24.8755 13.2884 24.9481 13.0083 24.9481C8.96267 24.9378 4.91703 24.9378 0.871382 24.9481C0.497938 24.9481 0.228228 24.8444 0.0518799 24.5228C0.0518799 16.4938 0.0518799 8.46473 0.0518799 0.435685ZM1.31744 1.25519C1.31744 8.76556 1.31744 16.2344 1.31744 23.7137C1.46267 23.7137 1.57678 23.7137 1.69088 23.7137C5.13487 23.7137 8.57885 23.6929 12.0125 23.7241C12.6452 23.7344 13.1328 23.5996 13.527 23.0913C13.6826 22.8838 13.7863 22.7178 13.7863 22.4481C13.7759 15.9958 13.7656 9.54357 13.7967 3.09129C13.7967 2.39627 13.6618 1.87759 13.112 1.45228C12.9461 1.3278 12.8112 1.24481 12.6037 1.24481C8.9523 1.25519 5.29047 1.24481 1.63902 1.24481C1.53528 1.25519 1.44192 1.25519 1.31744 1.25519ZM27.4896 1.25519C27.334 1.25519 27.2199 1.25519 27.1058 1.25519C23.6826 1.25519 20.2593 1.27593 16.8465 1.23444C16.1826 1.22407 15.6639 1.35892 15.2594 1.89834C15.1245 2.07469 15.0311 2.21992 15.0311 2.45851C15.0415 8.93153 15.0519 15.4046 15.0208 21.8776C15.0208 22.5726 15.1452 23.1328 15.7365 23.527C15.8714 23.6203 16.0374 23.7137 16.193 23.7137C19.8652 23.7241 23.5374 23.7241 27.2199 23.7241C27.3133 23.7241 27.4067 23.7241 27.5104 23.7241C27.4896 16.2137 27.4896 8.74481 27.4896 1.25519Z" fill="#232323"/>
<path d="M3.79667 13.5893C3.83816 12.054 5.0311 10.5602 6.60787 10.1245C6.8672 10.0519 6.92945 9.93782 6.9087 9.7096C6.89832 9.5955 6.89832 9.47101 6.9087 9.35691C6.93982 8.99384 7.18878 8.74487 7.52073 8.74487C7.87343 8.74487 8.13276 8.99384 8.15351 9.37765C8.16389 9.52288 8.16389 9.66811 8.15351 9.81334C8.14314 9.98969 8.20538 10.0519 8.38173 10.1038C9.84438 10.5395 10.7884 11.4938 11.1722 12.9669C11.2344 13.1951 11.2552 13.444 11.2655 13.693C11.2759 14.0665 11.0166 14.3465 10.6743 14.3569C10.3216 14.3777 10.0622 14.1183 10.0311 13.7449C9.99998 13.4959 9.98961 13.2366 9.92737 12.998C9.66803 11.971 8.7448 11.2864 7.67633 11.2449C6.22405 11.193 5.32156 12.0955 5.11409 13.1225C5.0726 13.2988 5.06223 13.4855 5.04148 13.6723C4.99998 14.1183 4.75102 14.388 4.37758 14.3569C4.01451 14.3258 3.78629 14.0353 3.79667 13.5893Z" fill="#232323"/>
<path d="M7.58298 14.9792C8.79667 14.9792 10.0207 14.9792 11.2344 14.9792C11.6286 14.9792 11.9087 15.249 11.8983 15.6017C11.8983 15.9544 11.6182 16.2137 11.2241 16.2241C11.2033 16.2241 11.1826 16.2241 11.1618 16.2241C8.76555 16.2241 6.36929 16.2241 3.96265 16.2241C3.5166 16.2241 3.24689 15.9855 3.24689 15.5913C3.24689 15.2075 3.50622 14.9792 3.97303 14.9792C5.18672 14.9792 6.39004 14.9792 7.58298 14.9792Z" fill="#232323"/>
<path d="M19.388 14.9793C18.6307 14.9793 17.8734 14.9793 17.1058 14.9793C17.0125 14.9793 16.9087 14.9793 16.8154 14.9689C16.4938 14.9171 16.2656 14.6577 16.2656 14.3465C16.2656 14.0353 16.5042 13.7864 16.8257 13.7345C16.8983 13.7241 16.9813 13.7241 17.0539 13.7241C18.5996 13.7241 20.1452 13.7241 21.7012 13.7241C21.7739 13.7241 21.8568 13.7241 21.9295 13.7345C22.2718 13.776 22.5 14.0353 22.5 14.3673C22.5 14.6785 22.2718 14.9274 21.9398 14.9793C21.8568 14.9897 21.7635 14.9897 21.6805 14.9897C20.9232 14.9793 20.1556 14.9793 19.388 14.9793Z" fill="#232323"/>
<path d="M19.4191 11.2344C20.2178 11.2344 21.0166 11.2344 21.8154 11.2344C22.2407 11.2344 22.5104 11.4833 22.5207 11.8464C22.5207 12.2095 22.2407 12.4792 21.8361 12.4792C20.2075 12.4792 18.5892 12.4792 16.9606 12.4792C16.6286 12.4792 16.4004 12.3132 16.3174 12.0331C16.2344 11.7738 16.3278 11.4833 16.5664 11.3485C16.6909 11.2759 16.8568 11.2447 17.0124 11.2447C17.8008 11.2344 18.61 11.2344 19.4191 11.2344Z" fill="#232323"/>
<path d="M19.3672 9.97931C18.5788 9.97931 17.7905 9.97931 17.0021 9.97931C16.556 9.97931 16.2759 9.73035 16.2759 9.36728C16.2759 8.99384 16.5664 8.74487 17.0021 8.74487C18.5996 8.74487 20.1971 8.74487 21.7946 8.74487C22.2407 8.74487 22.5208 8.99384 22.5208 9.36728C22.5208 9.74072 22.2407 9.98969 21.7946 9.98969C20.9855 9.97931 20.1764 9.97931 19.3672 9.97931Z" fill="#232323"/>
<path d="M19.4087 16.2241C20.2075 16.2241 21.0063 16.2241 21.805 16.2241C22.2407 16.2241 22.5312 16.4835 22.5208 16.8569C22.5104 17.22 22.2407 17.4689 21.8154 17.4689C20.2075 17.4689 18.5996 17.4689 17.0021 17.4689C16.5664 17.4689 16.276 17.2096 16.2863 16.8362C16.2967 16.4627 16.5768 16.2241 17.0229 16.2241C17.8112 16.2241 18.61 16.2241 19.4087 16.2241Z" fill="#232323"/>
<path d="M18.1536 6.23453C17.749 6.23453 17.3341 6.2449 16.9295 6.23453C16.5561 6.22415 16.2863 5.97519 16.276 5.62249C16.2656 5.2698 16.5457 4.98971 16.9295 4.98971C17.7386 4.97934 18.5478 4.97934 19.3569 4.98971C19.7511 4.98971 20.0208 5.24905 20.0104 5.61212C20.0104 5.97519 19.7511 6.22415 19.3465 6.22415C18.9523 6.2449 18.5478 6.23453 18.1536 6.23453Z" fill="#232323"/>
<path d="M25.0104 14.9794C24.8029 14.9794 24.6058 14.9898 24.3983 14.9794C24.0249 14.9587 23.7552 14.6889 23.7655 14.357C23.7655 14.0147 24.0353 13.745 24.4087 13.7346C24.8133 13.7242 25.2282 13.7242 25.6328 13.7346C26.0062 13.745 26.2655 14.0147 26.2655 14.357C26.2655 14.6993 26.0062 14.9587 25.6328 14.9794C25.4149 14.9898 25.2178 14.9794 25.0104 14.9794Z" fill="#232323"/>
<path d="M25.0207 11.2448C25.2386 11.2448 25.4461 11.2345 25.6639 11.2448C26.0062 11.2656 26.2448 11.5145 26.2552 11.8465C26.2656 12.1784 26.0062 12.4689 25.6639 12.4793C25.2282 12.4897 24.7925 12.4897 24.3568 12.4793C24.0145 12.4689 23.7552 12.1784 23.7552 11.8465C23.7656 11.5145 24.0249 11.2552 24.3776 11.2448C24.5954 11.2345 24.8133 11.2345 25.0207 11.2448C25.0207 11.2345 25.0207 11.2345 25.0207 11.2448Z" fill="#232323"/>
<path d="M25.0104 9.97937C24.7822 9.97937 24.5643 9.98975 24.3361 9.97937C24.0042 9.95863 23.7552 9.68892 23.7552 9.36734C23.7552 9.04576 24.0042 8.76568 24.3361 8.75531C24.7822 8.73456 25.2282 8.73456 25.6743 8.75531C26.0062 8.76568 26.2552 9.04576 26.2552 9.36734C26.2552 9.68892 26.0166 9.95863 25.6743 9.97937C25.4564 9.98975 25.2386 9.97937 25.0104 9.97937Z" fill="#232323"/>
<path d="M25.0104 17.469C24.7822 17.469 24.5643 17.4794 24.3361 17.469C24.0042 17.4482 23.7552 17.1785 23.7552 16.857C23.7552 16.5354 24.0042 16.2449 24.3257 16.2346C24.7718 16.2138 25.2178 16.2138 25.6639 16.2346C25.9959 16.2449 26.2448 16.525 26.2448 16.8466C26.2448 17.1785 25.9959 17.4482 25.6432 17.469C25.4461 17.469 25.2282 17.469 25.0104 17.469Z" fill="#232323"/>
</svg>
