<svg width="70" height="25" viewBox="0 0 70 25" fill="none" xmlns="http://www.w3.org/2000/svg">
<circle cx="13.3528" cy="7.75194" r="7.75194" fill="#E7004C"/>
<circle cx="34.886" cy="7.75194" r="7.75194" fill="#49CCC6"/>
<circle cx="56.4192" cy="7.75194" r="7.75194" fill="#BCCB0E"/>
<path d="M23.793 11.1111C25.2254 11.1111 26.4421 12.2747 26.3461 13.7039C26.2835 14.6345 26.1327 15.5468 25.7756 16.4261C25.0912 18.1112 24.0881 19.6423 22.8236 20.932C21.5591 22.2217 20.0579 23.2448 18.4057 23.9427C16.7535 24.6407 14.9827 25 13.1944 25C11.4061 25 9.63535 24.6407 7.98317 23.9427C6.33099 23.2448 4.82979 22.2217 3.56527 20.932C2.30074 19.6423 1.29767 18.1112 0.613316 16.4261C0.256188 15.5468 0.105393 14.6345 0.0428374 13.7039C-0.053236 12.2747 1.1635 11.1111 2.59594 11.1111C4.02837 11.1111 4.96403 12.2886 5.20838 13.7001C5.24941 13.9371 5.3122 14.1711 5.40576 14.4015C5.82943 15.4447 6.45041 16.3926 7.23325 17.191C8.01608 17.9894 8.94544 18.6228 9.96827 19.0549C10.9911 19.487 12.0873 19.7094 13.1944 19.7094C14.3015 19.7094 15.3978 19.487 16.4206 19.0549C17.4434 18.6228 18.3728 17.9894 19.1556 17.191C19.9385 16.3926 20.5595 15.4447 20.9831 14.4015C21.0767 14.1711 21.1395 13.9371 21.1805 13.7001C21.4249 12.2886 22.3605 11.1111 23.793 11.1111Z" fill="#E7004C"/>
<path d="M45.3207 11.1111C46.7531 11.1111 47.9699 12.2747 47.8738 13.7039C47.8112 14.6345 47.6605 15.5468 47.3033 16.4261C46.619 18.1112 45.6159 19.6423 44.3514 20.932C43.0869 22.2217 41.5856 23.2448 39.9335 23.9427C38.2813 24.6407 36.5105 25 34.7222 25C32.9339 25 31.1631 24.6407 29.5109 23.9427C27.8587 23.2448 26.3575 22.2217 25.093 20.932C23.8285 19.6423 22.8254 18.1112 22.1411 16.4261C21.8047 15.598 21.567 14.7406 21.4122 13.8662C21.1456 12.3607 22.42 11.1111 23.9489 11.1111C25.4779 11.1111 26.4397 12.3786 26.7698 13.8715C26.8093 14.0501 26.8626 14.2268 26.9335 14.4015C27.3572 15.4447 27.9782 16.3926 28.761 17.191C29.5438 17.9894 30.4732 18.6228 31.496 19.0549C32.5188 19.487 33.6151 19.7094 34.7222 19.7094C35.8293 19.7094 36.9255 19.487 37.9484 19.0549C38.9712 18.6228 39.9006 17.9894 40.6834 17.191C41.4662 16.3926 42.0872 15.4447 42.5109 14.4015C42.6044 14.1711 42.6672 13.9371 42.7083 13.7001C42.9526 12.2886 43.8883 11.1111 45.3207 11.1111Z" fill="#26C5BD" fill-opacity="0.8"/>
<path d="M66.8485 11.1111C68.2809 11.1111 69.4977 12.2747 69.4016 13.7039C69.339 14.6345 69.1883 15.5468 68.8311 16.4261C68.1468 18.1112 67.1437 19.6423 65.8792 20.932C64.6147 22.2217 63.1134 23.2448 61.4613 23.9427C59.8091 24.6407 58.0383 25 56.25 25C54.4617 25 52.6909 24.6407 51.0387 23.9427C49.3865 23.2448 47.8853 22.2217 46.6208 20.932C45.3563 19.6423 44.3532 18.1112 43.6689 16.4261C43.3325 15.598 43.0948 14.7406 42.94 13.8663C42.6734 12.3607 43.9478 11.1111 45.4767 11.1111C47.0057 11.1111 47.9675 12.3786 48.2976 13.8715C48.3371 14.0501 48.3904 14.2268 48.4613 14.4015C48.885 15.4447 49.506 16.3926 50.2888 17.191C51.0716 17.9894 52.001 18.6228 53.0238 19.0549C54.0466 19.487 55.1429 19.7094 56.25 19.7094C57.3571 19.7094 58.4533 19.487 59.4762 19.0549C60.499 18.6228 61.4284 17.9894 62.2112 17.191C62.994 16.3926 63.615 15.4447 64.0387 14.4015C64.1322 14.1711 64.195 13.9371 64.2361 13.7001C64.4804 12.2886 65.4161 11.1111 66.8485 11.1111Z" fill="#B9C900" fill-opacity="0.8"/>
</svg>
