<svg width="40" height="50" viewBox="0 0 40 50" fill="none" xmlns="http://www.w3.org/2000/svg">
<path d="M39.6341 19.492C39.6544 22.0733 38.8618 24.4513 37.8049 26.7481C35.874 30.9757 33.2723 34.8172 30.3455 38.3944C27.2967 42.0936 24.0244 45.6302 20.8333 49.2277C20.0609 50.1017 19.6138 50.0611 18.8008 49.2277C13.5162 43.8009 8.59754 38.1098 4.5325 31.7074C3.00811 29.309 1.68697 26.809 0.792658 24.1058C-0.589456 19.9594 -2.54307e-05 15.935 1.66664 12.0529C4.87802 4.5326 12.2764 -0.142194 20.4268 0.0610576C30.0203 0.325285 38.2317 7.72366 39.4309 17.2562C39.5122 17.9879 39.5731 18.7399 39.6341 19.492ZM19.817 5.73179C12.0325 5.73179 5.67071 12.0936 5.67071 19.8781C5.67071 27.6424 12.0528 34.0448 19.817 34.0448C27.5813 34.0448 33.9634 27.6627 33.9634 19.8781C33.9634 12.0936 27.6016 5.73179 19.817 5.73179Z" fill="#E7004C"/>
<path d="M13.6584 27.6017C13.9023 26.1586 14.1665 24.5935 14.4511 23.0488C14.5324 22.622 14.4714 22.3374 14.1462 22.0326C13.0486 21.0163 12.012 19.9391 10.9348 18.9025C10.5893 18.5773 10.325 18.2317 10.4877 17.7033C10.6503 17.1952 11.0568 17.0326 11.5242 16.9716C12.9267 16.7683 14.3494 16.5448 15.7519 16.3822C16.321 16.3212 16.6665 16.0976 16.9104 15.5488C17.4998 14.248 18.1706 12.9878 18.7803 11.7074C19.0039 11.2602 19.2885 10.9553 19.8169 10.9553C20.325 10.9553 20.6299 11.2805 20.8332 11.7277C21.4633 13.0488 22.1543 14.3496 22.7641 15.6911C22.9673 16.1179 23.2315 16.3009 23.6787 16.3618C25.0608 16.5448 26.4633 16.7277 27.8454 16.9513C28.2112 17.0122 28.6177 17.1139 28.9023 17.3374C29.3698 17.7033 29.2885 18.313 28.7803 18.8212C27.7031 19.8984 26.6259 20.9553 25.5283 21.9919C25.2031 22.2968 25.0811 22.6017 25.1828 23.0691C25.4673 24.5326 25.6909 26.0163 25.9551 27.4797C26.0364 27.9878 26.0161 28.496 25.4876 28.6992C25.1828 28.8212 24.7153 28.7805 24.4104 28.6383C23.0283 27.9675 21.6665 27.2358 20.325 26.5041C19.9592 26.3009 19.695 26.3212 19.3291 26.5041C17.9673 27.2561 16.5852 27.9878 15.1828 28.6789C14.3494 29.1057 13.6177 28.6179 13.6584 27.6017Z" fill="#E7004C"/>
</svg>
