<svg width="15" height="25" viewBox="0 0 15 25" fill="none" xmlns="http://www.w3.org/2000/svg">
<g clip-path="url(#clip0)">
<path d="M9.498 2.46992C9.05623 3.26309 8.65462 4.07634 8.16266 4.8394C7.71085 5.55225 7.50001 6.27514 7.57029 7.11851C7.62049 7.70084 7.58033 8.28317 7.58033 8.90566C7.87149 8.90566 8.15262 8.90566 8.45382 8.90566C8.46386 9.0663 8.4739 9.20687 8.48394 9.36751C8.59438 9.36751 8.69479 9.36751 8.78515 9.36751C9.68876 9.36751 10.5924 9.36751 11.4859 9.36751C11.9679 9.36751 12.1586 9.68879 11.9277 10.1105C11.2651 11.3153 10.5924 12.5101 9.92972 13.7149C9.8494 13.8655 9.80924 14.0462 9.7992 14.2069C9.78916 14.9599 9.78916 15.7129 9.78916 16.496C10.0904 16.496 10.3715 16.496 10.6727 16.496C10.6827 16.6567 10.6827 16.7771 10.6928 16.9478C10.7932 16.9478 10.8835 16.9478 10.9839 16.9478C11.8574 16.9478 12.7309 16.9779 13.6044 16.9378C14.1767 16.9077 14.3775 17.3294 14.1165 17.7812C13.4237 18.9458 12.7912 20.1406 12.1386 21.3354C12.0683 21.4559 12.0281 21.6165 12.0281 21.7571C12.0181 22.5302 12.0281 23.2932 12.0281 24.0864C12.3293 24.0864 12.6004 24.0864 12.9016 24.0864C12.9016 24.3876 12.9016 24.6687 12.9016 24.9699C12.0281 24.9699 11.1546 24.9699 10.2611 24.9699C10.2611 24.6888 10.2611 24.4177 10.2611 24.1065C10.5422 24.1065 10.8233 24.1065 11.1345 24.1065C11.1345 23.6045 11.0944 23.1326 11.1446 22.6707C11.2149 21.8876 11.0141 21.2049 10.5924 20.5522C10.1506 19.8595 9.77912 19.1165 9.36748 18.3635C9.31728 18.4237 9.27712 18.4639 9.24699 18.5141C8.71487 19.4679 8.18274 20.4318 7.65061 21.3856C7.61045 21.4559 7.57029 21.5362 7.57029 21.6165C7.56025 22.4298 7.57029 23.243 7.57029 24.0864C7.86145 24.0864 8.14258 24.0864 8.44378 24.0864C8.44378 24.3876 8.44378 24.6687 8.44378 24.9699C7.57029 24.9699 6.69679 24.9699 5.80322 24.9699C5.80322 24.6888 5.80322 24.4177 5.80322 24.1065C6.08434 24.1065 6.36547 24.1065 6.67671 24.1065C6.67671 23.6647 6.64659 23.243 6.68675 22.8314C6.77712 21.9378 6.56627 21.1446 6.06426 20.3916C5.68274 19.8193 5.39157 19.1968 5.05021 18.5944C5.01005 18.5141 4.95985 18.4438 4.88956 18.3334C4.80924 18.4639 4.749 18.5643 4.6988 18.6647C4.20683 19.5482 3.71487 20.4318 3.23294 21.3153C3.16266 21.4358 3.1225 21.5964 3.1225 21.737C3.11246 22.5101 3.11246 23.2731 3.11246 24.0763C3.41366 24.0763 3.69479 24.0763 3.99599 24.0763C3.99599 24.3775 3.99599 24.6587 3.99599 24.9498C3.1225 24.9498 2.23896 24.9498 1.34539 24.9498C1.34539 24.6687 1.34539 24.3976 1.34539 24.0964C1.61647 24.0964 1.8976 24.0964 2.21888 24.0964C2.21888 23.7149 2.18876 23.3635 2.22892 23.0221C2.3494 21.988 2.07832 21.0844 1.51607 20.2209C0.993982 19.4177 0.572295 18.5543 0.110448 17.7209C-0.140556 17.2691 0.050207 16.9579 0.562255 16.9478C1.45583 16.9478 2.3494 16.9478 3.24298 16.9478C3.34338 16.9478 3.44378 16.9478 3.56426 16.9478C3.56426 16.7872 3.56426 16.6667 3.56426 16.5061C3.86547 16.5061 4.14659 16.5061 4.45784 16.5061C4.45784 15.8735 4.42772 15.2711 4.46788 14.6788C4.498 14.1667 4.35744 13.7249 4.10643 13.2932C3.50402 12.2591 2.93173 11.2049 2.35944 10.1607C2.0984 9.68879 2.27912 9.37755 2.81125 9.37755C3.79519 9.37755 4.77912 9.37755 5.78314 9.37755C5.79318 9.22694 5.80322 9.09642 5.81326 8.94582C6.09438 8.94582 6.37551 8.94582 6.69679 8.94582C6.69679 8.83538 6.69679 8.74502 6.69679 8.6647C6.69679 7.83136 6.70683 6.98799 6.69679 6.15466C6.69679 6.01409 6.65663 5.86349 6.58635 5.73297C5.93374 4.53819 5.26105 3.34341 4.60844 2.14863C4.32731 1.64662 4.51808 1.34542 5.09037 1.34542C6.26507 1.34542 7.42973 1.34542 8.60442 1.34542C8.70483 1.34542 8.80523 1.34542 8.90563 1.34542C9.12651 0.321323 9.7992 -0.170645 10.6325 0.0602788C11.3855 0.271122 11.7972 1.06429 11.5462 1.79723C11.2349 2.5904 10.4418 2.86148 9.498 2.46992ZM8.03214 16.5061C8.33334 16.5061 8.61446 16.5061 8.91567 16.5061C8.91567 15.7129 8.92571 14.9398 8.91567 14.1767C8.91567 14.0362 8.87551 13.8856 8.80523 13.7551C8.30322 12.8314 7.79117 11.9177 7.28916 11.0041C7.249 10.9237 7.1988 10.8535 7.12852 10.753C6.81728 11.3053 6.53615 11.8173 6.24499 12.3394C5.95382 12.8715 5.54217 13.3836 5.39157 13.9559C5.24097 14.5282 5.35141 15.1707 5.35141 15.7832C5.35141 16.0241 5.35141 16.2551 5.35141 16.5161C5.6727 16.5161 5.94378 16.5161 6.23495 16.5161C6.24499 16.6667 6.25503 16.8073 6.25503 16.9378C6.85744 16.9378 7.42973 16.9378 8.03214 16.9378C8.03214 16.7872 8.03214 16.6667 8.03214 16.5061ZM5.6727 2.24903C6.16467 3.13257 6.63655 3.98598 7.13856 4.8896C7.64057 3.97594 8.11246 3.12253 8.60442 2.24903C7.60041 2.24903 6.65663 2.24903 5.6727 2.24903ZM4.90964 12.9117C5.41165 11.998 5.88354 11.1446 6.36547 10.2812C5.37149 10.2812 4.42772 10.2812 3.44378 10.2812C3.93575 11.1647 4.40764 12.0081 4.90964 12.9117ZM7.90161 10.2711C8.40362 11.1647 8.87551 12.0181 9.36748 12.9117C9.86948 12.0081 10.3414 11.1547 10.8333 10.2711C9.83936 10.2711 8.89559 10.2711 7.90161 10.2711ZM1.21487 17.8514C1.71687 18.745 2.18876 19.5984 2.68073 20.492C3.18274 19.5884 3.65463 18.735 4.14659 17.8514C3.15262 17.8514 2.20884 17.8514 1.21487 17.8514ZM7.13856 20.492C7.64057 19.5884 8.11246 18.735 8.59438 17.8615C7.60041 17.8615 6.65663 17.8615 5.6727 17.8615C6.16467 18.735 6.63655 19.5884 7.13856 20.492ZM13.0623 17.8615C12.0683 17.8615 11.1245 17.8615 10.1406 17.8615C10.6325 18.745 11.1044 19.5984 11.6064 20.492C12.0984 19.5884 12.5703 18.745 13.0623 17.8615ZM10.251 0.893612C10.01 0.893612 9.80924 1.09442 9.80924 1.33538C9.80924 1.57634 10.01 1.77715 10.251 1.77715C10.502 1.77715 10.7129 1.5663 10.7028 1.3153C10.6928 1.08438 10.492 0.893612 10.251 0.893612Z" fill="#232323"/>
</g>
<defs>
<clipPath id="clip0">
<rect width="14.257" height="25" fill="white"/>
</clipPath>
</defs>
</svg>
