<svg width="29" height="25" viewBox="0 0 29 25" fill="none" xmlns="http://www.w3.org/2000/svg">
<path d="M28.6161 18.9618C28.6161 19.1078 28.6161 19.2643 28.6161 19.4103C28.5953 19.4415 28.5744 19.4624 28.5535 19.4937C28.2928 20.182 27.834 20.5053 27.0935 20.5157C27.0101 20.5157 26.9163 20.5157 26.8224 20.5157C26.8224 21.8506 26.8224 23.1333 26.8224 24.416C26.8224 24.8331 26.666 24.9791 26.2488 24.9896C25.1538 24.9896 24.0484 24.9896 22.9534 24.9896C22.5154 24.9896 22.3694 24.8436 22.3694 24.3951C22.3694 23.4149 22.3694 22.4346 22.3694 21.4647C22.3694 21.3708 22.3694 21.2666 22.3694 21.2144C21.6394 21.4126 20.9302 21.6524 20.2107 21.8088C18.6776 22.1321 17.1134 22.2468 15.5491 22.2886C13.2861 22.3616 11.023 22.2781 8.79132 21.8714C7.93618 21.715 7.10189 21.4543 6.24674 21.2353C6.24674 21.2666 6.24674 21.3708 6.24674 21.4647C6.24674 22.4346 6.24674 23.4044 6.24674 24.3743C6.24674 24.854 6.11117 24.9896 5.64188 25C4.5573 25 3.48316 25 2.39858 25C1.93972 25 1.79372 24.854 1.79372 24.4056C1.79372 23.2271 1.79372 22.0383 1.79372 20.8598C1.79372 20.7556 1.79372 20.6617 1.79372 20.5366C1.65815 20.5366 1.54344 20.5366 1.43915 20.5366C0.886432 20.547 0.479716 20.2758 0.198144 19.817C0.125143 19.6918 0.0730003 19.5563 0 19.4207C0 19.2747 0 19.1183 0 18.9723C0.166858 18.6073 0.344144 18.2423 0.719574 18.0545C0.865575 17.9815 0.907289 17.8773 0.907289 17.7208C0.896861 16.6154 0.896861 15.4995 0.907289 14.3941C0.917718 14.0187 0.959432 13.6224 1.06372 13.2678C1.54343 11.5888 2.61758 10.4938 4.28616 9.96194C4.38002 9.93065 4.51559 9.85765 4.52602 9.79508C4.54688 9.50308 4.53645 9.21107 4.53645 8.91907C4.1923 8.91907 3.88987 8.91907 3.58744 8.91907C3.51444 9.78465 3.4623 9.82636 2.63844 9.79508C1.56429 9.74293 0.709146 8.64793 0.959432 7.63635C1.14715 6.85421 1.89801 6.24935 2.70101 6.23892C3.50401 6.22849 3.56659 6.29106 3.56659 7.07321C3.56659 7.38607 3.56659 7.69893 3.56659 8.00136C3.91073 8.00136 4.21316 8.00136 4.53645 8.00136C4.53645 7.66764 4.52602 7.36521 4.53645 7.06278C4.5573 6.33278 4.50516 5.60277 4.61988 4.89363C5.12045 1.99447 7.53989 0.00260716 10.4808 0.00260716C13.0566 0.00260716 15.6221 -0.00782147 18.1979 0.0130358C18.6568 0.0130358 19.1261 0.0651789 19.5849 0.159036C21.9627 0.670039 23.8502 2.76619 24.0797 5.19606C24.1631 6.04078 24.1214 6.88549 24.1318 7.73021C24.1318 7.82407 24.1318 7.92836 24.1318 8.01178C24.4655 8.01178 24.7471 8.01178 25.0495 8.01178C25.0495 7.69893 25.06 7.41735 25.0495 7.12535C25.0078 6.20763 25.2477 6.22849 25.9568 6.24935C27.0518 6.28063 27.9487 7.40692 27.6463 8.42893C27.3647 9.40922 26.4991 9.94108 25.4041 9.78465C25.1747 9.75336 25.06 9.5865 25.0495 9.34665C25.0391 9.21107 25.0495 9.0755 25.0495 8.9295C24.7262 8.9295 24.4447 8.9295 24.1422 8.9295C24.1422 9.26322 24.1422 9.5865 24.1422 9.90979C24.1944 9.93065 24.2465 9.95151 24.2987 9.97236C26.447 10.6502 27.7088 12.3709 27.7088 14.6027C27.7088 15.6455 27.7088 16.6884 27.7088 17.7313C27.7088 17.8251 27.7401 17.9607 27.7923 17.992C28.2094 18.2005 28.4493 18.5551 28.6161 18.9618ZM5.43331 8.81479C5.79831 8.6375 6.14245 8.43936 6.49703 8.29336C8.42632 7.53207 10.4599 7.27135 12.5039 7.18792C13.9431 7.12535 15.3926 7.16707 16.8318 7.24007C18.2814 7.30264 19.7205 7.52164 21.1179 7.94921C21.8479 8.17864 22.5467 8.50193 23.2558 8.7835C23.2558 8.7835 23.2662 8.72093 23.2662 8.65836C23.2662 7.64678 23.2767 6.62478 23.2662 5.6132C23.2558 4.9562 23.1202 4.32005 22.8387 3.72562C21.9418 1.83804 20.4088 0.899468 18.3439 0.868182C15.7681 0.826468 13.1818 0.857754 10.6059 0.857754C10.3243 0.857754 10.0428 0.868182 9.77161 0.899468C7.33132 1.13933 5.45417 3.18333 5.42288 5.63406C5.41245 6.62478 5.42288 7.60507 5.42288 8.59579C5.41245 8.66879 5.42288 8.73136 5.43331 8.81479ZM22.9847 9.80551C22.9951 9.77422 23.016 9.73251 23.0264 9.70122C22.6509 9.5135 22.2859 9.28407 21.9001 9.12765C20.2732 8.4915 18.5629 8.24121 16.8318 8.10564C14.2455 7.89707 11.68 7.9805 9.12504 8.44979C8.12389 8.6375 7.1436 8.88779 6.22588 9.33622C6.00688 9.45093 5.79831 9.59693 5.58974 9.73251C5.74617 9.81594 5.88174 9.83679 6.00688 9.85765C6.13203 9.87851 6.2676 9.89936 6.39274 9.94108C8.08218 10.3999 9.16675 11.4845 9.71947 13.1427C10.0219 14.05 10.3452 14.9572 10.7415 15.8228C10.9813 16.3547 11.3463 16.8448 11.7218 17.2933C12.0555 17.7 12.5248 17.8668 13.0671 17.8564C13.8388 17.846 14.6105 17.8251 15.3822 17.8564C16.1852 17.8981 16.7796 17.5644 17.2176 16.9387C17.5201 16.5111 17.7912 16.0627 17.9894 15.583C18.3752 14.6444 18.6881 13.685 19.0531 12.7359C19.6162 11.2551 20.7008 10.3374 22.2234 9.93065C22.4737 9.87851 22.7344 9.84722 22.9847 9.80551ZM26.8224 17.846C26.8328 17.7834 26.8433 17.7521 26.8433 17.7104C26.8433 16.5737 26.8433 15.437 26.8433 14.3002C26.8328 12.5482 25.6022 11.0465 23.9232 10.7441C22.1504 10.4208 20.5652 11.3072 19.8978 12.9967C19.7309 13.4138 19.5954 13.8414 19.4494 14.2585C19.0114 15.5204 18.5525 16.7614 17.6556 17.7938C17.6452 17.8043 17.6661 17.8251 17.6661 17.846C20.7112 17.846 23.746 17.846 26.8224 17.846ZM10.9813 17.8355C10.9605 17.7938 10.9605 17.7625 10.9396 17.7417C10.2513 16.9595 9.82376 16.0314 9.46918 15.072C9.19804 14.342 8.96861 13.5911 8.67661 12.8715C7.98832 11.2238 6.38231 10.3895 4.64073 10.7649C2.94087 11.1299 1.79372 12.5795 1.79372 14.3211C1.79372 15.4057 1.79372 16.4798 1.79372 17.5644C1.79372 17.6583 1.80415 17.7417 1.80415 17.8355C4.87016 17.8355 7.91532 17.8355 10.9813 17.8355ZM14.3081 18.7324C10.0532 18.7324 5.79831 18.7324 1.54344 18.7324C1.44958 18.7324 1.35572 18.7324 1.26186 18.7324C1.03243 18.7533 0.907289 18.8784 0.886432 19.1078C0.855146 19.4937 1.00115 19.6397 1.47043 19.6397C10.0323 19.6397 18.5942 19.6397 27.1457 19.6397C27.2187 19.6397 27.2917 19.6397 27.3647 19.6397C27.5837 19.6188 27.6984 19.4937 27.7193 19.2747C27.761 18.8888 27.6045 18.7324 27.177 18.7324C22.8908 18.7324 18.6046 18.7324 14.3081 18.7324ZM5.36031 20.5366C4.45302 20.5366 3.57701 20.5366 2.68015 20.5366C2.68015 21.7358 2.68015 22.9038 2.68015 24.0927C3.57701 24.0927 4.46345 24.0927 5.36031 24.0927C5.36031 22.9038 5.36031 21.7254 5.36031 20.5366ZM23.2662 20.5366C23.2662 21.7463 23.2662 22.9247 23.2662 24.1031C24.1631 24.1031 25.0495 24.1031 25.9255 24.1031C25.9255 22.9038 25.9255 21.7254 25.9255 20.5366C25.0287 20.5366 24.1527 20.5366 23.2662 20.5366ZM7.08103 20.5366C9.17718 21.715 19.5328 21.715 21.5351 20.5366C16.7066 20.5366 11.9095 20.5366 7.08103 20.5366ZM2.68015 7.12535C2.05444 7.08364 1.74158 7.57378 1.78329 8.09521C1.82501 8.60622 2.19001 8.93993 2.68015 8.88779C2.68015 8.30379 2.68015 7.71978 2.68015 7.12535ZM25.936 8.90865C26.2801 8.90865 26.5513 8.80436 26.7181 8.51236C26.9058 8.15778 26.9058 7.79278 26.6868 7.45907C26.52 7.19835 26.2593 7.1045 25.9464 7.12535C25.936 7.73021 25.936 8.30379 25.936 8.90865Z" fill="#232323"/>
<path d="M23.2558 16.9387C21.848 16.9387 20.5757 15.6665 20.5861 14.2482C20.5966 12.8507 21.8584 11.5889 23.2558 11.5889C24.6637 11.5889 25.936 12.8612 25.9256 14.2795C25.9151 15.6873 24.6533 16.9387 23.2558 16.9387ZM23.2663 12.4753C22.2026 12.4753 21.4621 13.1949 21.4517 14.2482C21.4413 15.3223 22.1713 16.0732 23.235 16.0732C24.2987 16.0732 25.0391 15.3536 25.0496 14.3003C25.06 13.2262 24.33 12.4753 23.2663 12.4753Z" fill="#232323"/>
<path d="M5.36028 11.5991C6.76814 11.5991 8.04043 12.861 8.04043 14.2793C8.04043 15.6767 6.77857 16.9386 5.37071 16.949C3.96284 16.949 2.69055 15.6871 2.69055 14.2688C2.70098 12.861 3.95241 11.5991 5.36028 11.5991ZM7.16443 14.2897C7.16443 13.226 6.44485 12.4751 5.40199 12.4751C4.32784 12.4647 3.57698 13.1947 3.56656 14.248C3.56656 15.3117 4.28613 16.0626 5.32899 16.0626C6.41357 16.073 7.16443 15.3534 7.16443 14.2897Z" fill="#232323"/>
</svg>
