<svg width="35" height="25" viewBox="0 0 35 25" fill="none" xmlns="http://www.w3.org/2000/svg">
<g clip-path="url(#clip0)">
<path d="M20.9232 20.1644C20.0783 20.9758 19.1348 21.1512 18.0266 20.6249C18.0266 20.9539 18.0047 21.2499 18.0376 21.535C18.0486 21.6337 18.2131 21.7434 18.3229 21.7872C20.1551 22.4561 21.9874 23.103 23.8197 23.7609C23.8965 23.7938 23.9843 23.8157 24.0611 23.8486C24.3683 23.9692 24.5439 24.1776 24.489 24.5175C24.4341 24.8574 24.1928 24.9999 23.8636 24.9999C22.92 24.9999 21.9765 24.9999 21.0219 24.9999C17.7304 24.9999 14.4279 24.9999 11.1363 24.9999C10.8401 24.9999 10.5768 24.9561 10.4341 24.66C10.2805 24.3201 10.4341 23.9912 10.8511 23.8377C12.1348 23.3771 13.4294 22.9166 14.7131 22.4561C15.3385 22.2368 15.9639 21.9955 16.5893 21.7872C16.7978 21.7214 16.8856 21.6227 16.8636 21.4034C16.8417 21.1622 16.8636 20.921 16.8636 20.6359C15.7884 21.1403 14.8229 20.9977 13.9671 20.1644C13.8573 20.2521 13.7476 20.3508 13.6379 20.4385C12.8809 20.9977 12.058 21.1184 11.2131 20.7127C10.3793 20.3179 9.9075 19.6162 9.89653 18.6951C9.87458 15.8223 9.88556 12.9495 9.88556 10.0877C9.88556 10.0438 9.89653 9.98897 9.89653 9.91221C11.8166 9.91221 13.7367 9.91221 15.7006 9.91221C15.7006 9.11177 15.7006 8.3552 15.7006 7.59862C15.7006 6.74335 15.5689 6.38151 16.8636 6.40344C16.8636 5.71265 16.8746 5.0109 16.8526 4.32011C16.8526 4.23239 16.7539 4.1337 16.6881 4.04598C16.2272 3.43195 15.7664 2.82888 15.3166 2.21484C15.0094 1.79818 15.0642 1.50212 15.4921 1.20607C16.0078 0.855195 16.5235 0.526247 17.0282 0.17537C17.3135 -0.0219984 17.5768 -0.0219984 17.862 0.17537C18.3777 0.537212 18.9153 0.877125 19.431 1.228C19.837 1.50212 19.8809 1.80914 19.5846 2.21484C19.1567 2.79598 18.7178 3.38809 18.268 3.95826C18.0815 4.18853 18.0156 4.42976 18.0156 4.72581C18.0376 5.28502 18.0156 5.83326 18.0156 6.43633C18.1802 6.43633 18.3229 6.43633 18.4655 6.43633C18.9702 6.4473 19.1787 6.64467 19.1787 7.13809C19.1787 7.93853 19.1787 8.73897 19.1787 9.5394C19.1787 9.66002 19.1787 9.76967 19.1787 9.92318C21.1207 9.92318 23.0298 9.92318 24.9937 9.92318C24.9937 10.0877 24.9937 10.2302 24.9937 10.3727C24.9937 13.0701 24.9827 15.7784 24.9937 18.4758C24.9937 19.5175 24.5987 20.3289 23.6332 20.7675C22.6567 21.217 21.768 21.0087 20.989 20.2741C21 20.1973 20.978 20.1863 20.9232 20.1644ZM11.0705 11.0526C11.0705 11.8311 11.0705 12.5877 11.0705 13.3333C15.3385 13.3333 19.5846 13.3333 23.8307 13.3333C23.8307 12.5657 23.8307 11.8091 23.8307 11.0526C19.5736 11.0526 15.3385 11.0526 11.0705 11.0526ZM11.0595 16.8311C15.3385 16.8311 19.5846 16.8311 23.8197 16.8311C23.8197 16.0526 23.8197 15.296 23.8197 14.5504C19.5517 14.5504 15.3166 14.5504 11.0595 14.5504C11.0595 15.3179 11.0595 16.0635 11.0595 16.8311ZM14.4937 23.7719C14.4937 23.7828 14.4937 23.8048 14.5047 23.8157C16.4686 23.8157 18.4326 23.8157 20.3965 23.8157C19.4749 23.4429 18.5423 23.103 17.6097 22.7741C17.5109 22.7412 17.3903 22.7412 17.2915 22.7741C16.3589 23.092 15.4263 23.4319 14.4937 23.7719ZM11.0705 18.0372C11.0047 18.6512 11.0157 19.2214 11.6081 19.5942C12.0141 19.8464 12.5298 19.8245 12.9028 19.5394C13.4185 19.1447 13.4185 18.6074 13.3526 18.0372C12.5736 18.0372 11.8276 18.0372 11.0705 18.0372ZM14.5595 18.0372C14.5047 18.6951 14.5266 19.2872 15.163 19.6271C15.6019 19.8684 16.0298 19.8245 16.4247 19.5175C16.9185 19.1337 16.9185 18.5964 16.8417 18.0372C16.0627 18.0372 15.3166 18.0372 14.5595 18.0372ZM18.0486 18.0372C17.9827 18.6622 18.0047 19.2324 18.5972 19.5942C19.0031 19.8464 19.431 19.8355 19.837 19.5723C20.3965 19.1995 20.4075 18.6403 20.3417 18.0372C19.5736 18.0372 18.8276 18.0372 18.0486 18.0372ZM21.5376 18.0372C21.4718 18.6951 21.5047 19.2762 22.1301 19.6271C22.5689 19.8684 22.9968 19.8245 23.3918 19.5175C23.8965 19.1337 23.8856 18.5964 23.8197 18.0372C23.0517 18.0372 22.3056 18.0372 21.5376 18.0372ZM18.0156 7.57669C17.6097 7.57669 17.2476 7.57669 16.8856 7.57669C16.8856 8.35519 16.8856 9.10081 16.8856 9.85739C17.2696 9.85739 17.6426 9.85739 18.0156 9.85739C18.0156 9.08984 18.0156 8.34423 18.0156 7.57669ZM17.4451 3.09204C17.7743 2.65344 18.0486 2.28063 18.3558 1.87493C18.0815 1.68853 17.8511 1.52405 17.5987 1.37055C17.5219 1.32669 17.3903 1.31572 17.3135 1.35958C17.0611 1.51309 16.8088 1.68853 16.5345 1.86397C16.8417 2.2916 17.1269 2.66441 17.4451 3.09204Z" fill="#232323"/>
<path d="M6.40749 19.7805C5.01408 19.7805 3.68649 19.7805 2.32599 19.7805C2.32599 21.513 2.32599 23.2345 2.32599 24.9669C1.93101 24.9669 1.56894 24.9669 1.17395 24.9669C1.17395 23.2454 1.17395 21.5349 1.17395 19.7805C0.778967 19.7805 0.416898 19.7805 0.0219141 19.7805C0.0219141 18.5963 0.0219141 17.456 0.0219141 16.2827C0.351068 16.2827 0.66925 16.2827 1.05326 16.2827C0.954516 15.6796 0.866742 15.1095 0.778967 14.5393C0.526616 13.0481 0.274265 11.5568 0.0219141 10.0656C-0.0439166 9.67087 0.164547 9.36386 0.515645 9.30903C0.844798 9.26517 1.10812 9.49543 1.17395 9.89017C1.51408 11.8968 1.84323 13.9033 2.18336 15.9099C2.2053 16.0305 2.22724 16.1402 2.24919 16.2827C3.34637 16.2827 4.43257 16.3375 5.50781 16.2717C7.31815 16.1621 8.96392 17.5546 8.71157 19.7586C8.3495 19.7586 7.97646 19.7586 7.5705 19.7586C7.5705 21.5239 7.5705 23.2454 7.5705 24.9889C7.17552 24.9889 6.81345 24.9889 6.41847 24.9889C6.40749 23.2564 6.40749 21.5349 6.40749 19.7805ZM7.39496 18.5744C7.20844 17.9055 6.5611 17.434 5.79307 17.434C4.32285 17.4231 2.84166 17.434 1.37144 17.434C1.30561 17.434 1.23978 17.445 1.17395 17.456C1.17395 17.8507 1.17395 18.2125 1.17395 18.5744C3.26956 18.5744 5.33226 18.5744 7.39496 18.5744Z" fill="#232323"/>
<path d="M28.4937 19.7917C28.4937 21.5352 28.4937 23.2457 28.4937 24.9781C28.1097 24.9781 27.7476 24.9781 27.3527 24.9781C27.3527 23.2566 27.3527 21.5242 27.3527 19.7808C26.9577 19.7808 26.5956 19.7808 26.2445 19.7808C25.8495 18.3444 26.9248 16.6777 28.4389 16.3597C28.6802 16.3049 28.9436 16.283 29.1959 16.283C30.337 16.272 31.478 16.283 32.663 16.283C32.7617 15.7457 32.8495 15.2084 32.9373 14.6821C33.2006 13.0922 33.4639 11.5023 33.7382 9.92331C33.8041 9.49568 34.0784 9.26542 34.4075 9.32024C34.7696 9.37507 34.9451 9.69305 34.8793 10.1207C34.5501 12.0505 34.232 13.9913 33.9028 15.9211C33.8809 16.0308 33.8809 16.1404 33.8699 16.272C34.21 16.272 34.5392 16.272 34.8793 16.272C34.8793 17.4452 34.8793 18.5856 34.8793 19.7588C34.5172 19.7588 34.1552 19.7588 33.7492 19.7588C33.7492 21.5132 33.7492 23.2347 33.7492 24.9781C33.3432 24.9781 32.9702 24.9781 32.5752 24.9781C32.5752 23.2457 32.5752 21.5352 32.5752 19.7917C31.2257 19.7917 29.8871 19.7917 28.4937 19.7917ZM27.4404 18.5746C29.569 18.5746 31.6426 18.5746 33.7163 18.5746C33.7163 18.1799 33.7163 17.8181 33.7163 17.4343C32.1144 17.4343 30.5454 17.4123 28.9765 17.4452C28.2633 17.4672 27.7696 17.8729 27.4404 18.5746Z" fill="#232323"/>
</g>
<defs>
<clipPath id="clip0">
<rect width="35" height="25" fill="white"/>
</clipPath>
</defs>
</svg>
